<?xml version="1.0"?>
<svg width="512" height="512" xmlns="http://www.w3.org/2000/svg">
 <metadata id="metadata3053">image/svg+xml</metadata>

 <g>
  <title>background</title>
  <rect fill="none" id="canvas_background" height="402" width="582" y="-1" x="-1"/>
 </g>
 <g>
  <title>Layer 1</title>
  <g transform="matrix(0.945585 0 0 0.945585 14.0067 62)" id="cozycloud">
   <path fill-opacity="0" id="Path-copy" d="m375.394989,394.191986l-240.792984,0c-74.752007,0 -135.536661,-60.541992 -135.536661,-134.964996c0,-35.48999 13.721656,-69.014984 38.656057,-94.381989c21.8419,-22.201004 50.134998,-36.020004 80.741596,-39.614998c3.615005,-30.479805 17.479996,-58.658104 39.792999,-80.400402c25.477005,-24.8381 59.136002,-38.484321 94.781006,-38.484321c35.636002,0 69.305008,13.646221 94.781998,38.474121c22.221008,21.6506 36.045013,49.676197 39.751007,79.992596c69.048981,6.161011 123.362,64.097 123.362,134.425003c0,74.412994 -60.826019,134.954987 -135.546997,134.954987l0.009979,0l0,0z"/>
   <path fill="#333" id="Shape" d="m375.394989,394.191986l-240.792984,0c-74.752007,0 -135.536661,-60.541992 -135.536661,-134.964996c0,-35.48999 13.721656,-69.014984 38.656057,-94.381989c21.8419,-22.201004 50.134998,-36.020004 80.741596,-39.614998c3.615005,-30.479805 17.479996,-58.658104 39.792999,-80.400402c25.477005,-24.8381 59.136002,-38.484321 94.781006,-38.484321c35.636002,0 69.305008,13.646221 94.781998,38.474121c22.221008,21.6506 36.045013,49.676197 39.751007,79.992596c69.048981,6.161011 123.362,64.097 123.362,134.425003c0,74.412994 -60.826019,134.954987 -135.546997,134.954987l0.009979,0zm-1.023987,-28.310974l1.023987,0c59.064026,0 107.111023,-47.843018 107.111023,-106.654022c0,-58.800995 -48.046997,-106.643997 -107.111023,-106.643997l-1.074982,0c-7.710999,0 -14.029022,-6.109985 -14.203003,-13.80899c-1.330994,-57.435699 -49.356995,-104.138302 -107.069,-104.138302c-57.712997,0 -105.759003,46.722897 -107.080002,104.159298c-0.173996,7.556 -6.287003,13.645996 -13.886002,13.819c-57.6707,1.324005 -104.590401,49.147003 -104.590401,106.623001c0,58.812012 48.046097,106.654999 107.110405,106.654999l0.869995,0l0.337997,-0.020996c0.307007,0 0.613998,0 0.921005,0.020996l237.608994,0l0.031006,-0.010986z"/>
  </g>
  <text opacity="0.77" font-style="normal" font-weight="bold" stroke="null" transform="matrix(1.89984 0 0 1.78802 -94.5476 11.2154)" xml:space="preserve" text-anchor="start" font-family="Helvetica, Arial, sans-serif" font-size="32" id="svg_1" y="212.45259" x="106.257152" stroke-opacity="null" stroke-width="0" fill="#000000">BitTorrent</text>
  <path stroke="null" transform="rotate(9 236.684 235.354)" id="svg_3" d="m254.06665,187.947311l-67.011505,42.913574l66.184235,14.743027l-61.175217,46.073181l-24.697342,-7.781036l17.517914,44.411682l69.617157,-19.375122l-29.395035,-8.101349l79.815842,-66.175446l-72.960281,-11.993454l70.455795,-44.71814l-40.188049,-6.714294l43.770935,-28.420395l-16.078156,-0.408966l-67.92627,38.990494l32.069977,6.556244l0,0z" fill-opacity="null" stroke-opacity="null" stroke-width="null" fill="#333"/>
 </g>
</svg>